# xmcd
#
# Track frame offsets:
#	150
#	17597
#	29556
#	45715
#	64586
#	77270
#	95909
#	115139
#	130408
#
# Disc length: 1966 seconds
#
# Revision: 1
# Processed by: cddbd v1.5.2PL0 Copyright (c) Steve Scherf et al.
# Submitted via: audiograbber 1.83.01
#
DISCID=7007ac09
DTITLE=fasttrax - FTX-412
DYEAR=1900
DGENRE=
TTITLE0=lady antebellum - dancin' away with my heart
TTITLE1=billy currington - like my dog
TTITLE2=kenny chesney - reality
TTITLE3=sara evans - my heart can't tell you no
TTITLE4=chris young - you
TTITLE5=taylor swift - safe and sound ft. the civil wars
TTITLE6=miranda lambert - over you
TTITLE7=eric church - like jesus does
TTITLE8=miranda lambert - dear diamond
EXTD=
EXTT0=
EXTT1=
EXTT2=
EXTT3=
EXTT4=
EXTT5=
EXTT6=
EXTT7=
EXTT8=
PLAYORDER=
